G04 #@! TF.GenerationSoftware,KiCad,Pcbnew,(5.1.9)-1*
G04 #@! TF.CreationDate,2022-03-10T18:33:41-05:00*
G04 #@! TF.ProjectId,ADX,4144582e-6b69-4636-9164-5f7063625858,rev?*
G04 #@! TF.SameCoordinates,Original*
G04 #@! TF.FileFunction,Soldermask,Top*
G04 #@! TF.FilePolarity,Negative*
%FSLAX46Y46*%
G04 Gerber Fmt 4.6, Leading zero omitted, Abs format (unit mm)*
G04 Created by KiCad (PCBNEW (5.1.9)-1) date 2022-03-10 18:33:41*
%MOMM*%
%LPD*%
G01*
G04 APERTURE LIST*
%ADD10R,2.000000X2.000000*%
%ADD11C,2.000000*%
%ADD12O,1.400000X1.400000*%
%ADD13C,1.400000*%
%ADD14R,1.000000X1.000000*%
%ADD15O,1.800000X1.800000*%
%ADD16R,1.800000X1.800000*%
%ADD17C,1.600000*%
%ADD18R,1.600000X1.600000*%
%ADD19C,1.850000*%
%ADD20R,1.727200X1.727200*%
%ADD21C,1.727200*%
%ADD22O,1.600000X2.400000*%
%ADD23R,1.600000X2.400000*%
%ADD24C,1.800000*%
%ADD25R,1.100000X1.800000*%
%ADD26R,1.800000X1.100000*%
%ADD27O,1.600000X2.500000*%
%ADD28O,3.500000X7.000000*%
%ADD29R,2.600000X2.000000*%
%ADD30R,2.000000X2.600000*%
%ADD31R,1.270000X3.600000*%
%ADD32R,1.350000X4.200000*%
%ADD33C,5.700000*%
%ADD34C,1.200000*%
%ADD35R,2.500000X1.800000*%
%ADD36R,1.800000X2.500000*%
G04 APERTURE END LIST*
D10*
X148700000Y-48500000D03*
D11*
X105100000Y-104500000D03*
X109600000Y-104500000D03*
X105100000Y-98000000D03*
X109600000Y-98000000D03*
D12*
X115400000Y-103300000D03*
D13*
X115400000Y-101400000D03*
D14*
X103700000Y-36100000D03*
X108200000Y-41700000D03*
X111800000Y-32300000D03*
D10*
X152300000Y-54900000D03*
X152200000Y-60700000D03*
X99300000Y-15400000D03*
X152200000Y-48500000D03*
X130900000Y-41300000D03*
X135300000Y-41200000D03*
D12*
X101700000Y-43600000D03*
D13*
X99800000Y-43600000D03*
D12*
X109100000Y-32100000D03*
D13*
X107200000Y-32100000D03*
D12*
X145400000Y-35200000D03*
D13*
X145400000Y-37100000D03*
D12*
X98600000Y-95000000D03*
D13*
X96700000Y-95000000D03*
D12*
X119500000Y-95100000D03*
D13*
X117600000Y-95100000D03*
D12*
X119600000Y-79200000D03*
D13*
X117700000Y-79200000D03*
D12*
X112300000Y-79400000D03*
D13*
X110400000Y-79400000D03*
D12*
X105000000Y-79200000D03*
D13*
X103100000Y-79200000D03*
D12*
X98200000Y-79400000D03*
D13*
X96300000Y-79400000D03*
D12*
X108900000Y-92500000D03*
D13*
X107000000Y-92500000D03*
D12*
X145700000Y-90300000D03*
D13*
X145700000Y-88400000D03*
D12*
X138100000Y-85600000D03*
D13*
X140000000Y-85600000D03*
D12*
X141400000Y-94900000D03*
D13*
X139500000Y-94900000D03*
D12*
X136700000Y-94900000D03*
D13*
X134800000Y-94900000D03*
D11*
X99980000Y-35900000D03*
X94900000Y-35900000D03*
D12*
X72060000Y-46400000D03*
D13*
X74600000Y-46400000D03*
D15*
X73140000Y-26800000D03*
D16*
X70600000Y-26800000D03*
D15*
X90540000Y-35100000D03*
D16*
X88000000Y-35100000D03*
D15*
X88460000Y-39500000D03*
D16*
X91000000Y-39500000D03*
D15*
X141800000Y-34860000D03*
D16*
X141800000Y-37400000D03*
D17*
X99000000Y-28500000D03*
X99000000Y-26000000D03*
X80500000Y-53200000D03*
D18*
X78000000Y-53200000D03*
D17*
X80200000Y-46400000D03*
X77700000Y-46400000D03*
X70900000Y-58200000D03*
X73400000Y-58200000D03*
X70800000Y-53000000D03*
D18*
X73300000Y-53000000D03*
D17*
X99300000Y-59800000D03*
X96800000Y-59800000D03*
X96100000Y-43400000D03*
X93600000Y-43400000D03*
X108400000Y-53000000D03*
X108400000Y-50500000D03*
X89900000Y-43300000D03*
X87400000Y-43300000D03*
X103300000Y-29500000D03*
X103300000Y-32000000D03*
X113300000Y-41600000D03*
X110800000Y-41600000D03*
X110100000Y-26800000D03*
X110100000Y-29300000D03*
X71100000Y-39700000D03*
D18*
X71100000Y-37200000D03*
D17*
X64700000Y-39200000D03*
X64700000Y-36700000D03*
X64700000Y-33100000D03*
X64700000Y-30600000D03*
X70800000Y-33100000D03*
D18*
X70800000Y-30600000D03*
D17*
X142000000Y-30100000D03*
X144500000Y-30100000D03*
X121200000Y-41000000D03*
X118700000Y-41000000D03*
X125100000Y-95300000D03*
X127600000Y-95300000D03*
X125200000Y-90800000D03*
X127700000Y-90800000D03*
X141400000Y-91400000D03*
X141400000Y-88900000D03*
X135600000Y-90200000D03*
X135600000Y-87700000D03*
X145800000Y-95600000D03*
X145800000Y-93100000D03*
X91100000Y-76400000D03*
X88600000Y-76400000D03*
X91100000Y-69300000D03*
D18*
X88600000Y-69300000D03*
D19*
X84220000Y-106730000D03*
X68980000Y-106730000D03*
X84220000Y-66090000D03*
X68980000Y-66090000D03*
D20*
X68980000Y-68630000D03*
D21*
X68980000Y-71170000D03*
X68980000Y-73710000D03*
X68980000Y-76250000D03*
X68980000Y-78790000D03*
X68980000Y-81330000D03*
X68980000Y-83870000D03*
X68980000Y-86410000D03*
X68980000Y-88950000D03*
X68980000Y-91490000D03*
X68980000Y-94030000D03*
X68980000Y-96570000D03*
X68980000Y-99110000D03*
X68980000Y-101650000D03*
X68980000Y-104190000D03*
X84220000Y-104190000D03*
X84220000Y-101650000D03*
X84220000Y-99110000D03*
X84220000Y-96570000D03*
X84220000Y-94030000D03*
X84220000Y-91490000D03*
X84220000Y-88950000D03*
X84220000Y-86410000D03*
X84220000Y-83870000D03*
X84220000Y-81330000D03*
X84220000Y-78790000D03*
X84220000Y-76250000D03*
X84220000Y-73710000D03*
X84220000Y-71170000D03*
X84220000Y-68630000D03*
D11*
X102420000Y-22500000D03*
X102420000Y-19960000D03*
X102420000Y-17420000D03*
X102420000Y-14880000D03*
X144200000Y-22600000D03*
X144200000Y-20060000D03*
X144200000Y-17520000D03*
X144200000Y-14980000D03*
D22*
X114500000Y-29280000D03*
X137360000Y-36900000D03*
X117040000Y-29280000D03*
X134820000Y-36900000D03*
X119580000Y-29280000D03*
X132280000Y-36900000D03*
X122120000Y-29280000D03*
X129740000Y-36900000D03*
X124660000Y-29280000D03*
X127200000Y-36900000D03*
X127200000Y-29280000D03*
X124660000Y-36900000D03*
X129740000Y-29280000D03*
X122120000Y-36900000D03*
X132280000Y-29280000D03*
X119580000Y-36900000D03*
X134820000Y-29280000D03*
X117040000Y-36900000D03*
X137360000Y-29280000D03*
D23*
X114500000Y-36900000D03*
D24*
X133436000Y-45904000D03*
X130896000Y-45904000D03*
X128356000Y-45904000D03*
X125816000Y-45904000D03*
X123276000Y-45904000D03*
X120736000Y-45904000D03*
X118196000Y-45904000D03*
D22*
X86200000Y-47980000D03*
X103980000Y-55600000D03*
X88740000Y-47980000D03*
X101440000Y-55600000D03*
X91280000Y-47980000D03*
X98900000Y-55600000D03*
X93820000Y-47980000D03*
X96360000Y-55600000D03*
X96360000Y-47980000D03*
X93820000Y-55600000D03*
X98900000Y-47980000D03*
X91280000Y-55600000D03*
X101440000Y-47980000D03*
X88740000Y-55600000D03*
X103980000Y-47980000D03*
D23*
X86200000Y-55600000D03*
D11*
X95300000Y-90700000D03*
X99800000Y-90700000D03*
X95300000Y-84200000D03*
X99800000Y-84200000D03*
X116000000Y-90600000D03*
X120500000Y-90600000D03*
X116000000Y-84100000D03*
X120500000Y-84100000D03*
D25*
X109500000Y-35900000D03*
G36*
G01*
X107510000Y-35275000D02*
X107510000Y-36525000D01*
G75*
G02*
X107235000Y-36800000I-275000J0D01*
G01*
X106685000Y-36800000D01*
G75*
G02*
X106410000Y-36525000I0J275000D01*
G01*
X106410000Y-35275000D01*
G75*
G02*
X106685000Y-35000000I275000J0D01*
G01*
X107235000Y-35000000D01*
G75*
G02*
X107510000Y-35275000I0J-275000D01*
G01*
G37*
G36*
G01*
X108780000Y-37345000D02*
X108780000Y-38595000D01*
G75*
G02*
X108505000Y-38870000I-275000J0D01*
G01*
X107955000Y-38870000D01*
G75*
G02*
X107680000Y-38595000I0J275000D01*
G01*
X107680000Y-37345000D01*
G75*
G02*
X107955000Y-37070000I275000J0D01*
G01*
X108505000Y-37070000D01*
G75*
G02*
X108780000Y-37345000I0J-275000D01*
G01*
G37*
D26*
X152270000Y-31470000D03*
G36*
G01*
X152895000Y-29480000D02*
X151645000Y-29480000D01*
G75*
G02*
X151370000Y-29205000I0J275000D01*
G01*
X151370000Y-28655000D01*
G75*
G02*
X151645000Y-28380000I275000J0D01*
G01*
X152895000Y-28380000D01*
G75*
G02*
X153170000Y-28655000I0J-275000D01*
G01*
X153170000Y-29205000D01*
G75*
G02*
X152895000Y-29480000I-275000J0D01*
G01*
G37*
G36*
G01*
X150825000Y-30750000D02*
X149575000Y-30750000D01*
G75*
G02*
X149300000Y-30475000I0J275000D01*
G01*
X149300000Y-29925000D01*
G75*
G02*
X149575000Y-29650000I275000J0D01*
G01*
X150825000Y-29650000D01*
G75*
G02*
X151100000Y-29925000I0J-275000D01*
G01*
X151100000Y-30475000D01*
G75*
G02*
X150825000Y-30750000I-275000J0D01*
G01*
G37*
X152400000Y-38300000D03*
G36*
G01*
X153025000Y-36310000D02*
X151775000Y-36310000D01*
G75*
G02*
X151500000Y-36035000I0J275000D01*
G01*
X151500000Y-35485000D01*
G75*
G02*
X151775000Y-35210000I275000J0D01*
G01*
X153025000Y-35210000D01*
G75*
G02*
X153300000Y-35485000I0J-275000D01*
G01*
X153300000Y-36035000D01*
G75*
G02*
X153025000Y-36310000I-275000J0D01*
G01*
G37*
G36*
G01*
X150955000Y-37580000D02*
X149705000Y-37580000D01*
G75*
G02*
X149430000Y-37305000I0J275000D01*
G01*
X149430000Y-36755000D01*
G75*
G02*
X149705000Y-36480000I275000J0D01*
G01*
X150955000Y-36480000D01*
G75*
G02*
X151230000Y-36755000I0J-275000D01*
G01*
X151230000Y-37305000D01*
G75*
G02*
X150955000Y-37580000I-275000J0D01*
G01*
G37*
X152300000Y-45040000D03*
G36*
G01*
X152925000Y-43050000D02*
X151675000Y-43050000D01*
G75*
G02*
X151400000Y-42775000I0J275000D01*
G01*
X151400000Y-42225000D01*
G75*
G02*
X151675000Y-41950000I275000J0D01*
G01*
X152925000Y-41950000D01*
G75*
G02*
X153200000Y-42225000I0J-275000D01*
G01*
X153200000Y-42775000D01*
G75*
G02*
X152925000Y-43050000I-275000J0D01*
G01*
G37*
G36*
G01*
X150855000Y-44320000D02*
X149605000Y-44320000D01*
G75*
G02*
X149330000Y-44045000I0J275000D01*
G01*
X149330000Y-43495000D01*
G75*
G02*
X149605000Y-43220000I275000J0D01*
G01*
X150855000Y-43220000D01*
G75*
G02*
X151130000Y-43495000I0J-275000D01*
G01*
X151130000Y-44045000D01*
G75*
G02*
X150855000Y-44320000I-275000J0D01*
G01*
G37*
D27*
X86760000Y-25600000D03*
X89300000Y-25600000D03*
D28*
X94380000Y-20520000D03*
X84220000Y-20520000D03*
D29*
X73400000Y-15600000D03*
X73400000Y-21600000D03*
D30*
X68700000Y-18600000D03*
D31*
X89574600Y-15854000D03*
D32*
X86933000Y-15676200D03*
X92089200Y-15676200D03*
D33*
X62800000Y-17400000D03*
X62800000Y-106100000D03*
X151800000Y-16900000D03*
X151600000Y-105900000D03*
D24*
X118500000Y-75640000D03*
D16*
X118500000Y-73100000D03*
D24*
X111400000Y-75540000D03*
D16*
X111400000Y-73000000D03*
D24*
X104300000Y-75540000D03*
D16*
X104300000Y-73000000D03*
D24*
X97400000Y-75440000D03*
D16*
X97400000Y-72900000D03*
D24*
X109140000Y-87000000D03*
D16*
X106600000Y-87000000D03*
D34*
X129300000Y-108600000D03*
X129300000Y-106100000D03*
X119300000Y-108600000D03*
X119300000Y-106100000D03*
X124300000Y-101100000D03*
D35*
X124300000Y-106100000D03*
D36*
X129300000Y-101100000D03*
X119300000Y-101100000D03*
D34*
X145200000Y-108500000D03*
X145200000Y-106000000D03*
X135200000Y-108500000D03*
X135200000Y-106000000D03*
X140200000Y-101000000D03*
D35*
X140200000Y-106000000D03*
D36*
X145200000Y-101000000D03*
X135200000Y-101000000D03*
M02*
