M48
INCH,TZ
T1C0.0197
T2C0.0276
T3C0.0295
T4C0.0315
T5C0.0350
T6C0.0354
T7C0.0394
T8C0.0400
T9C0.0433
T10C0.0791
T11C0.1260
%
G90
G05
T1
X23780Y-18110
X23819Y-27756
X23819Y-37402
X23858Y-10197
X23858Y-33346
X24016Y-35197
X24055Y-25354
X24134Y-13740
X24134Y-15827
X24173Y-14882
X24213Y-29724
X24252Y-12323
X24252Y-21378
X24252Y-22677
X24291Y-11339
X24291Y-39961
X24409Y-31535
X24685Y-17126
X24685Y-19921
X24764Y-37913
X24803Y-32087
X25000Y-24213
X25079Y-28740
X25236Y-9094
X25276Y-36378
X25315Y-17441
X25472Y-21929
X25472Y-34173
X25591Y-26102
X25748Y-30906
X25866Y-10512
X26457Y-12835
X26614Y-9370
X26811Y-5748
X26811Y-13701
X27165Y-22165
X27244Y-18110
X27441Y-19173
X27480Y-16693
X27638Y-8346
X27638Y-9567
X28031Y-32756
X28110Y-26654
X28110Y-42047
X28268Y-24094
X28386Y-7283
X28386Y-29724
X28465Y-34409
X28543Y-27953
X28661Y-31220
X28701Y-16772
X28858Y-39291
X29094Y-24134
X29134Y-19252
X29213Y-36929
X29646Y-13976
X29724Y-26102
X29724Y-42205
X29803Y-22244
X29803Y-32756
X29882Y-20197
X29921Y-16063
X30039Y-29252
X30118Y-10315
X30157Y-35709
X30212Y-39552
X30236Y-5827
X30236Y-7402
X30630Y-12087
X30787Y-37756
X30827Y-31457
X31024Y-14488
X31102Y-42047
X31220Y-15866
X31260Y-19449
X31260Y-36417
X31299Y-5748
X31339Y-9961
X31378Y-29961
X31457Y-23228
X31496Y-7559
X31496Y-38976
X31575Y-26142
X31850Y-33740
X31890Y-13898
X31890Y-24567
X32165Y-37717
X32362Y-11614
X32362Y-15315
X32717Y-17717
X32717Y-19134
X32717Y-22835
X32795Y-20276
X32913Y-10276
X33150Y-5787
X33268Y-12441
X33465Y-13898
X33504Y-24291
X33740Y-20039
X33780Y-15472
X34094Y-28780
X34173Y-30984
X34449Y-7520
X34528Y-35787
X34528Y-39016
X34528Y-42205
X34567Y-8307
X34567Y-11772
X34567Y-23268
X34646Y-37677
X34764Y-40000
X34843Y-33110
X35039Y-16378
X35079Y-20709
X35394Y-40433
X35787Y-7598
X35906Y-8386
X35906Y-42205
X35984Y-31457
X36220Y-23071
X36220Y-25236
X36260Y-11929
X36457Y-10827
X36929Y-15157
X37008Y-39961
X37165Y-26457
X37244Y-20787
X37323Y-29803
X37362Y-32126
X37480Y-11614
X37520Y-42205
X37677Y-16299
X37717Y-5906
X37717Y-39016
X37795Y-20433
X37953Y-17874
X38307Y-24488
X38346Y-13898
X38425Y-8268
X38661Y-40354
X39094Y-42205
X39291Y-39685
X39488Y-9449
X39528Y-12047
X39606Y-7323
X39764Y-28465
X39764Y-29291
X39843Y-20079
X40394Y-23583
X40551Y-40236
X40709Y-25945
X40827Y-14213
X40827Y-15118
X40827Y-20079
X40906Y-27283
X41024Y-10394
X41142Y-16260
X41299Y-9291
X41339Y-39724
X41378Y-13543
X41417Y-6063
X41417Y-7244
X41614Y-24803
X41732Y-11614
X41811Y-10276
X41969Y-17008
X42205Y-21929
X42205Y-42244
X42323Y-5748
X42323Y-9843
X42441Y-37717
X42441Y-39843
X42598Y-16417
X42638Y-27205
X42677Y-8465
X42874Y-17480
X42913Y-29567
X43031Y-6772
X43110Y-15748
X43228Y-24724
X43307Y-23465
X43858Y-19921
X43937Y-15197
X44016Y-12717
X44055Y-37283
X44094Y-14055
X44094Y-18346
X44094Y-35787
X44134Y-5787
X44134Y-42126
X44213Y-39764
X44252Y-17520
X44252Y-27362
X44252Y-34016
X44488Y-25945
X44606Y-22323
X44685Y-9724
X44882Y-8268
X44921Y-15551
X44961Y-12520
X45000Y-31496
X45000Y-37795
X45039Y-13425
X45118Y-18504
X45197Y-28740
X45236Y-30118
X45315Y-20512
X45354Y-24173
X45551Y-27638
X45709Y-5984
X45866Y-10512
X45866Y-17205
X45945Y-26142
X46102Y-20236
X46142Y-22402
X46181Y-15512
X46220Y-7874
X46378Y-12795
X46378Y-23307
X46535Y-33661
X46693Y-5866
X46772Y-32283
X46772Y-34567
X46772Y-36654
X47087Y-7953
X47244Y-9449
X47362Y-10354
X47362Y-27559
X47520Y-19961
X47598Y-12953
X47638Y-22638
X47638Y-24764
X47835Y-41732
X47874Y-40709
X47953Y-5748
X47953Y-18701
X47953Y-20748
X47953Y-38031
X47953Y-42795
X47992Y-34646
X48071Y-17126
X48268Y-25787
X48661Y-8031
X48661Y-13268
X48740Y-16142
X48780Y-20000
X48819Y-9685
X48858Y-22087
X49409Y-5866
X49409Y-16811
X49606Y-32795
X49646Y-24094
X49685Y-13071
X49685Y-42835
X49724Y-30472
X49764Y-34488
X49843Y-26142
X49882Y-20709
X49961Y-41693
X50000Y-40591
X50118Y-8071
X50197Y-28898
X50394Y-9567
X50433Y-22480
X50551Y-15984
X50630Y-21102
X50669Y-13031
X50787Y-6063
X51142Y-37953
X51378Y-26969
X51417Y-7992
X51457Y-32992
X51535Y-24685
X51614Y-12953
X51654Y-35827
X51732Y-34370
X51811Y-29094
X52047Y-37362
X52087Y-22598
X52205Y-41614
X52205Y-42835
X52283Y-9764
X52283Y-31339
X52323Y-40827
X52362Y-20236
X52441Y-17047
X52559Y-5984
X52598Y-12992
X52874Y-26024
X52992Y-32913
X53386Y-23898
X53465Y-36457
X53504Y-22244
X53622Y-7953
X53661Y-5866
X53661Y-18780
X53701Y-20591
X53740Y-13543
X53819Y-28268
X53858Y-29606
X53937Y-25000
X53976Y-41220
X54016Y-9882
X54173Y-26732
X54331Y-15591
X54409Y-31102
X54409Y-36378
X54409Y-42874
X54449Y-34803
X54488Y-40669
X54803Y-23031
X54882Y-21181
X54921Y-14252
X54961Y-18583
X55000Y-17244
X55039Y-7992
X55039Y-10906
X55079Y-12244
X55433Y-5866
X55472Y-27087
X55512Y-9803
X55512Y-16220
X55669Y-28425
X55827Y-20118
X55866Y-25197
X55866Y-29882
X55945Y-40512
X56063Y-19134
X56102Y-42835
X56260Y-31457
X56299Y-22638
X56299Y-33898
X56339Y-10394
X56457Y-12874
X56457Y-41457
X56535Y-17441
X56614Y-15591
X56732Y-38780
X56890Y-20984
X56969Y-19488
X57441Y-26220
X57520Y-23740
X57559Y-10354
X57598Y-30394
X57638Y-17835
X57717Y-28661
X57835Y-5630
X57992Y-7047
X57992Y-12874
X58071Y-22362
X58110Y-20315
X58150Y-8976
X58189Y-16772
X58189Y-32441
X58228Y-42795
X58268Y-15551
X58386Y-25472
X58465Y-34252
X58740Y-13740
X58740Y-20827
X58740Y-40079
X58780Y-12874
X58780Y-18071
X58858Y-35984
X58898Y-37244
X59055Y-11063
X59134Y-27795
X59291Y-30906
X59449Y-10118
X59488Y-20354
X59724Y-38307
X59764Y-22598
X59803Y-34094
X59843Y-29646
X59882Y-35630
X59921Y-25709
X60236Y-31890
X60315Y-15906
X60354Y-40197
X60394Y-13268
X60551Y-8465
X60630Y-33346
X60709Y-37598
X60787Y-20394
X60787Y-21535
X60787Y-22953
X60787Y-23937
X60787Y-26181
X60827Y-39173
X60866Y-18386
X60906Y-36457
X60945Y-42913
T2
X28370Y-18268
X29370Y-18268
X37913Y-31260
X38071Y-37402
X38661Y-31260
X38819Y-37402
X39291Y-17165
X40039Y-17165
X40591Y-31181
X41339Y-31181
X42126Y-36417
X42205Y-12638
X42874Y-36417
X42953Y-12638
X43465Y-31260
X44213Y-31260
X45433Y-39921
X45433Y-40669
X46299Y-37441
X46339Y-31181
X47047Y-37441
X47087Y-31181
X53071Y-37362
X53819Y-37362
X54370Y-33701
X54921Y-37362
X55118Y-33701
X55669Y-37362
X57244Y-13858
X57244Y-14606
X57362Y-34803
X57362Y-35551
T3
X42110Y-14291
X42610Y-14791
X43110Y-14291
X59291Y-11890
X59303Y-17232
X59343Y-14579
X59791Y-11390
X59791Y-12390
X59803Y-16732
X59803Y-17732
X59843Y-14079
X59843Y-15079
T4
X25472Y-12047
X25472Y-13031
X25472Y-14449
X25472Y-15433
X27874Y-12047
X27874Y-13031
X27874Y-20866
X27913Y-22913
X27992Y-14646
X27992Y-15630
X28858Y-20866
X28898Y-22913
X30591Y-18268
X30709Y-20945
X31575Y-18268
X31693Y-20945
X33937Y-18890
X33937Y-21890
X34409Y-17047
X34882Y-27283
X34882Y-30079
X34937Y-18890
X34937Y-21890
X35394Y-17047
X35866Y-27283
X35866Y-30079
X35937Y-18890
X35937Y-21890
X36850Y-17087
X36937Y-18890
X36937Y-21890
X37835Y-17087
X37937Y-18890
X37937Y-21890
X38110Y-23543
X38937Y-18890
X38937Y-21890
X38976Y-10236
X38976Y-11220
X39094Y-23543
X39937Y-18890
X39937Y-21890
X40669Y-11614
X40669Y-12598
X40937Y-18890
X40937Y-21890
X42677Y-19882
X42677Y-20866
X43346Y-10551
X43346Y-11535
X43622Y-16378
X44606Y-16378
X45079Y-11528
X45079Y-14528
X46079Y-11528
X46079Y-14528
X46732Y-16142
X47079Y-11528
X47079Y-14528
X47717Y-16142
X48079Y-11528
X48079Y-14528
X49079Y-11528
X49079Y-14528
X49252Y-37520
X49291Y-35748
X50079Y-11528
X50079Y-14528
X50236Y-37520
X50276Y-35748
X51079Y-11528
X51079Y-14528
X52079Y-11528
X52079Y-14528
X53079Y-11528
X53079Y-14528
X53386Y-34528
X53386Y-35512
X54079Y-11528
X54079Y-14528
X55669Y-35000
X55669Y-35984
X55906Y-11850
X56890Y-11850
X57402Y-36654
X57402Y-37638
T5
X34157Y-10079
X35157Y-10079
T6
X27795Y-10551
X28795Y-10551
X34646Y-13819
X34827Y-15551
X35646Y-13819
X35827Y-15551
X38346Y-28701
X38346Y-29701
X41063Y-28740
X41063Y-29740
X41969Y-34252
X42969Y-34252
X43858Y-28740
X43858Y-29740
X46654Y-28780
X46654Y-29780
X55827Y-13724
X55827Y-14724
T7
X37362Y-14134
X39094Y-6063
X39362Y-14134
X51535Y-16260
X53268Y-16220
X58543Y-19094
X59921Y-19094
X59921Y-23898
X59961Y-21614
T8
X27157Y-27020
X27157Y-28020
X27157Y-29020
X27157Y-30020
X27157Y-31020
X27157Y-32020
X27157Y-33020
X27157Y-34020
X27157Y-35020
X27157Y-36020
X27157Y-37020
X27157Y-38020
X27157Y-39020
X27157Y-40020
X27157Y-41020
X33157Y-27020
X33157Y-28020
X33157Y-29020
X33157Y-30020
X33157Y-31020
X33157Y-32020
X33157Y-33020
X33157Y-34020
X33157Y-35020
X33157Y-36020
X33157Y-37020
X33157Y-38020
X33157Y-39020
X33157Y-40020
X33157Y-41020
X40323Y-5858
X40323Y-6858
X40323Y-7858
X40323Y-8858
X46534Y-18072
X47534Y-18072
X48534Y-18072
X49534Y-18072
X50534Y-18072
X51534Y-18072
X52534Y-18072
X56772Y-5898
X56772Y-6898
X56772Y-7898
X56772Y-8898
T9
X37520Y-33150
X37520Y-35709
X39291Y-33150
X39291Y-35709
X41378Y-38583
X41378Y-41142
X43150Y-38583
X43150Y-41142
X45669Y-33110
X45669Y-35669
X47441Y-33110
X47441Y-35669
T10
X33157Y-8079
X37157Y-8079
T11
X24724Y-6850
X24724Y-41772
X59685Y-41693
X59764Y-6654
T4
G00X46969Y-39941
M15
G01X46969Y-39665
M16
G05
G00X48799Y-41772
M15
G01X49075Y-41772
M16
G05
G00X50906Y-39941
M15
G01X50906Y-39665
M16
G05
G00X53228Y-39902
M15
G01X53228Y-39626
M16
G05
G00X55059Y-41732
M15
G01X55335Y-41732
M16
G05
G00X57165Y-39902
M15
G01X57165Y-39626
M16
G05
T7
G00X27047Y-7205
M15
G01X27047Y-7441
M16
G05
G00X28780Y-6142
M15
G01X29016Y-6142
M16
G05
G00X28780Y-8504
M15
G01X29016Y-8504
M16
G05
T0
M30
